<svg xmlns="http://www.w3.org/2000/svg" viewBox="0 0 512 512">
  <defs>
    <linearGradient id="bg" x1="0%" y1="0%" x2="100%" y2="100%">
      <stop offset="0%" style="stop-color:#7B8B6F"/>
      <stop offset="100%" style="stop-color:#5A6B4A"/>
    </linearGradient>
    <linearGradient id="glow" x1="0%" y1="0%" x2="100%" y2="100%">
      <stop offset="0%" style="stop-color:#A8D5BA;stop-opacity:0.4"/>
      <stop offset="100%" style="stop-color:#7FB69E;stop-opacity:0"/>
    </linearGradient>
  </defs>

  <!-- Background -->
  <rect width="512" height="512" rx="108" fill="url(#bg)"/>

  <!-- Decorative glow -->
  <circle cx="160" cy="160" r="180" fill="url(#glow)"/>

  <!-- Music Note Icon -->
  <path d="M256 96v213.1c-11.8-6.8-25.4-11.1-40-11.1-44.2 0-80 35.8-80 80s35.8 80 80 80 80-35.8 80-80V176h80V96H256z" fill="white" opacity="0.95"/>

  <!-- Sound Waves -->
  <g fill="none" stroke="white" stroke-width="12" stroke-linecap="round" opacity="0.6">
    <path d="M400 200c20 20 32 48 32 80s-12 60-32 80"/>
    <path d="M432 168c32 32 52 76 52 128s-20 96-52 128"/>
  </g>
</svg>
